<svg xmlns="http://www.w3.org/2000/svg" width="171.317" height="208.005" viewBox="0 0 45.328 55.035"><g transform="translate(-78.46 -116.079)"><path d="M101.017 119.15c-.33-.01-.515.077-.485.288.145.997.38 3.076 1.023 4.92-2.728.342-5.98 1.539-5.336 2.106 1.104.972 3.83 3.554 6.313 4.113.622.14 3.406-1.309 3.982-1.345-1.552 1.122-3.032 2.347-3.911 3.47-1.937 2.473-5.82 8.89-6.766 11.967a12.247 12.247 0 00-2.503-.264c-6.647 0-12.036 5.293-12.035 11.821 0 6.529 5.388 11.82 12.035 11.821 3.874-.003 7.51-1.84 9.768-4.932a11.045 11.045 0 006.926 2.44c6.032 0 10.923-4.803 10.923-10.728s-4.89-10.728-10.923-10.728a11.064 11.064 0 00-3.075.441c-.394-2.483-.82-6.023-.48-8.223.515-3.336 3.916-9.414 3.916-9.414s-1.114.612-2.622 1.544a.381.381 0 00.008-.04c.098-.052.193-.112.283-.179 1.436-1.062 1.353-3.534-.184-5.52-1.25-1.615-5.423-3.508-6.857-3.557zm-1.16 29.106l1.82-.194.73.054.728.072c-.128.128-1.31.063-1.431.198-.143-.137-1.005-.271-1.155-.401z" fill="#f3e9e9" stroke="#f3e9e9" stroke-width="3.537" stroke-linecap="round" stroke-linejoin="round" paint-order="stroke markers fill"/><ellipse ry="10.225" rx="10.179" cy="154.458" cx="109.422" fill="#b40303" paint-order="stroke markers fill"/><ellipse cx="93.864" cy="155.791" rx="11.217" ry="11.266" fill="#b40303" paint-order="stroke markers fill"/><path d="M88.078 153.572c-.786 2.711-.942 4.745-2.082 4.415-1.14-.33-1.427-2.796-.642-5.507.785-2.712 2.346-4.643 3.486-4.313 1.14.33.023 2.693-.762 5.405zm26.326-1.982c1.001 1.755 1.451 3.143 2.188 2.722.737-.42.524-2.183-.477-3.937-1-1.754-2.41-2.835-3.146-2.414-.738.42.435 1.876 1.435 3.63z" fill="#f4c3c4" paint-order="stroke markers fill"/><ellipse transform="rotate(7.705)" ry=".576" rx="1.781" cy="133.426" cx="114.275" fill="#812426" fill-opacity=".478" paint-order="stroke markers fill"/><ellipse cx="19.186" cy="181.219" rx="1.781" ry=".576" transform="rotate(-29.935)" fill="#812426" fill-opacity=".478" paint-order="stroke markers fill"/><path d="M103.8 125.425c2.314.532 3.885 2.29 3.508 3.925-.376 1.635-2.557 2.528-4.871 1.995-2.315-.532-4.855-2.993-5.884-3.92-.806-.726 4.932-2.533 7.247-2z" fill="#7fcd5f" paint-order="stroke markers fill"/><path d="M107.714 124.106c1.342 1.96 1.307 4.316-.077 5.264-1.384.948-3.594.128-4.936-1.831-1.341-1.96-1.544-5.49-1.673-6.87-.102-1.08 5.345 1.478 6.686 3.437z" fill="#7fcd5f" paint-order="stroke markers fill"/><ellipse cx="109.422" cy="154.458" rx="10.179" ry="10.225" fill="#b40303" paint-order="stroke markers fill"/><ellipse ry="11.266" rx="11.217" cy="155.791" cx="93.864" fill="#b40303" paint-order="stroke markers fill"/><path d="M88.078 153.572c-.786 2.711-.942 4.745-2.082 4.415-1.14-.33-1.427-2.796-.642-5.507.785-2.712 2.346-4.643 3.486-4.313 1.14.33.023 2.693-.762 5.405zm26.326-1.982c1.001 1.755 1.451 3.143 2.188 2.722.737-.42.524-2.183-.477-3.937-1-1.754-2.41-2.835-3.146-2.414-.738.42.435 1.876 1.435 3.63z" fill="#f4c3c4" paint-order="stroke markers fill"/><ellipse cx="114.275" cy="133.426" rx="1.781" ry=".576" transform="rotate(7.705)" fill="#812426" fill-opacity=".478" paint-order="stroke markers fill"/><ellipse transform="rotate(-29.935)" ry=".576" rx="1.781" cy="181.219" cx="19.186" fill="#812426" fill-opacity=".478" paint-order="stroke markers fill"/><path d="M95.474 147.346s2.325-8.53 4.91-11.988c2.398-3.208 9.374-7.515 9.374-7.515s-3.169 5.793-3.65 8.973c-.527 3.49.925 10.545.925 10.545l-.431.067" fill="none" stroke="#370101" stroke-width=".911" stroke-linecap="round" stroke-linejoin="round"/></g></svg>